<mxfile host="app.diagrams.net" modified="2023-10-16T01:53:30.993Z" agent="Mozilla/5.0 (Windows NT 10.0; Win64; x64; rv:109.0) Gecko/20100101 Firefox/118.0" etag="3ZMXknDED3av-jQlPrW4" version="22.0.4" type="github">
  <diagram id="C5RBs43oDa-KdzZeNtuy" name="Page-1">
    <mxGraphModel dx="873" dy="5146" grid="1" gridSize="10" guides="1" tooltips="1" connect="1" arrows="1" fold="1" page="1" pageScale="1" pageWidth="827" pageHeight="1169" math="0" shadow="0">
      <root>
        <mxCell id="WIyWlLk6GJQsqaUBKTNV-0" />
        <mxCell id="WIyWlLk6GJQsqaUBKTNV-1" parent="WIyWlLk6GJQsqaUBKTNV-0" />
        <mxCell id="h-hpe-AZ2TvY5lmzamjt-14" style="edgeStyle=orthogonalEdgeStyle;rounded=0;orthogonalLoop=1;jettySize=auto;html=1;exitX=0.5;exitY=1;exitDx=0;exitDy=0;exitPerimeter=0;entryX=0.5;entryY=0;entryDx=0;entryDy=0;" edge="1" parent="WIyWlLk6GJQsqaUBKTNV-1" source="h-hpe-AZ2TvY5lmzamjt-0">
          <mxGeometry relative="1" as="geometry">
            <mxPoint x="435" y="-4240" as="targetPoint" />
          </mxGeometry>
        </mxCell>
        <mxCell id="h-hpe-AZ2TvY5lmzamjt-0" value="start" style="strokeWidth=2;html=1;shape=mxgraph.flowchart.terminator;whiteSpace=wrap;" vertex="1" parent="WIyWlLk6GJQsqaUBKTNV-1">
          <mxGeometry x="390" y="-4320" width="90" height="40" as="geometry" />
        </mxCell>
        <mxCell id="h-hpe-AZ2TvY5lmzamjt-18" style="edgeStyle=orthogonalEdgeStyle;rounded=0;orthogonalLoop=1;jettySize=auto;html=1;exitX=0.5;exitY=1;exitDx=0;exitDy=0;entryX=0.5;entryY=0;entryDx=0;entryDy=0;" edge="1" parent="WIyWlLk6GJQsqaUBKTNV-1" target="h-hpe-AZ2TvY5lmzamjt-42">
          <mxGeometry relative="1" as="geometry">
            <mxPoint x="435" y="-4180" as="sourcePoint" />
            <mxPoint x="435" y="-4135" as="targetPoint" />
          </mxGeometry>
        </mxCell>
        <mxCell id="h-hpe-AZ2TvY5lmzamjt-42" value="Lo = Phi x d" style="rounded=1;whiteSpace=wrap;html=1;absoluteArcSize=1;arcSize=14;strokeWidth=2;" vertex="1" parent="WIyWlLk6GJQsqaUBKTNV-1">
          <mxGeometry x="385" y="-4130" width="100" height="40" as="geometry" />
        </mxCell>
        <mxCell id="h-hpe-AZ2TvY5lmzamjt-43" value="&lt;div&gt;&lt;br&gt;&lt;/div&gt;&lt;div&gt;Lo&lt;br&gt;&lt;/div&gt;" style="html=1;strokeWidth=2;shape=manualInput;whiteSpace=wrap;rounded=1;size=26;arcSize=11;" vertex="1" parent="WIyWlLk6GJQsqaUBKTNV-1">
          <mxGeometry x="385" y="-4060" width="100" height="60" as="geometry" />
        </mxCell>
        <mxCell id="h-hpe-AZ2TvY5lmzamjt-46" style="edgeStyle=orthogonalEdgeStyle;rounded=0;orthogonalLoop=1;jettySize=auto;html=1;exitX=0.5;exitY=1;exitDx=0;exitDy=0;entryX=0.5;entryY=0.167;entryDx=0;entryDy=0;entryPerimeter=0;" edge="1" parent="WIyWlLk6GJQsqaUBKTNV-1" source="h-hpe-AZ2TvY5lmzamjt-42" target="h-hpe-AZ2TvY5lmzamjt-43">
          <mxGeometry relative="1" as="geometry" />
        </mxCell>
        <mxCell id="h-hpe-AZ2TvY5lmzamjt-47" value="End" style="strokeWidth=2;html=1;shape=mxgraph.flowchart.start_2;whiteSpace=wrap;" vertex="1" parent="WIyWlLk6GJQsqaUBKTNV-1">
          <mxGeometry x="400" y="-3970" width="70" height="60" as="geometry" />
        </mxCell>
        <mxCell id="h-hpe-AZ2TvY5lmzamjt-50" style="edgeStyle=orthogonalEdgeStyle;rounded=0;orthogonalLoop=1;jettySize=auto;html=1;exitX=0.5;exitY=1;exitDx=0;exitDy=0;entryX=0.5;entryY=0;entryDx=0;entryDy=0;entryPerimeter=0;" edge="1" parent="WIyWlLk6GJQsqaUBKTNV-1" source="h-hpe-AZ2TvY5lmzamjt-43" target="h-hpe-AZ2TvY5lmzamjt-47">
          <mxGeometry relative="1" as="geometry" />
        </mxCell>
        <mxCell id="h-hpe-AZ2TvY5lmzamjt-53" value="&lt;div&gt;Vor&amp;nbsp;&amp;nbsp;&amp;nbsp; =&amp;nbsp;&amp;nbsp; Lo&lt;/div&gt;&lt;div&gt;&amp;nbsp;&amp;nbsp;&amp;nbsp;&amp;nbsp;&amp;nbsp;&amp;nbsp;&amp;nbsp;&amp;nbsp;&amp;nbsp;&amp;nbsp;&amp;nbsp;&amp;nbsp;&amp;nbsp;&amp;nbsp;&amp;nbsp;&amp;nbsp;&amp;nbsp;&amp;nbsp;&amp;nbsp; Phi = 3,14 &lt;br&gt;&lt;/div&gt;&lt;div&gt;&amp;nbsp;&amp;nbsp;&amp;nbsp;&amp;nbsp;&amp;nbsp;&amp;nbsp; d&lt;br&gt;&lt;/div&gt;" style="shape=parallelogram;html=1;strokeWidth=2;perimeter=parallelogramPerimeter;whiteSpace=wrap;rounded=1;arcSize=12;size=0.23;" vertex="1" parent="WIyWlLk6GJQsqaUBKTNV-1">
          <mxGeometry x="340" y="-4240" width="190" height="60" as="geometry" />
        </mxCell>
      </root>
    </mxGraphModel>
  </diagram>
</mxfile>
